<svg xmlns="http://www.w3.org/2000/svg" xmlns:xlink="http://www.w3.org/1999/xlink" width="783.791" height="503.908" viewBox="0 0 783.791 503.908">
  <defs>
    <filter id="Rectangle_53" x="8" y="0" width="768.791" height="502.908" filterUnits="userSpaceOnUse">
      <feOffset dy="-5" input="SourceAlpha"/>
      <feGaussianBlur stdDeviation="15" result="blur"/>
      <feFlood flood-opacity="0.102"/>
      <feComposite operator="in" in2="blur"/>
      <feComposite in="SourceGraphic"/>
    </filter>
    <filter id="Rectangle_54" x="0" y="451" width="783.791" height="52.908" filterUnits="userSpaceOnUse">
      <feOffset dy="4" input="SourceAlpha"/>
      <feGaussianBlur stdDeviation="5" result="blur-2"/>
      <feFlood flood-opacity="0.161"/>
      <feComposite operator="in" in2="blur-2"/>
      <feComposite in="SourceGraphic"/>
    </filter>
  </defs>
  <g id="appSvg" transform="translate(-968.209 -172.011)">
    <g id="conatainer">
      <g transform="matrix(1, 0, 0, 1, 968.21, 172.01)" filter="url(#Rectangle_53)">
        <g id="Rectangle_53-2" data-name="Rectangle 53" transform="translate(53 50)" fill="#eaeaea" stroke="#b9b9b9" stroke-width="1">
          <rect width="678.791" height="412.908" rx="17" stroke="none"/>
          <rect x="0.5" y="0.5" width="677.791" height="411.908" rx="16.5" fill="none"/>
        </g>
      </g>
      <g transform="matrix(1, 0, 0, 1, 968.21, 172.01)" filter="url(#Rectangle_54)">
        <g id="Rectangle_54-2" data-name="Rectangle 54" transform="translate(15 462)" fill="#f4f4f4" stroke="#b9b9b9" stroke-width="1">
          <rect width="753.791" height="22.908" rx="6" stroke="none"/>
          <rect x="0.5" y="0.5" width="752.791" height="21.908" rx="5.5" fill="none"/>
        </g>
      </g>
      <g id="Rectangle_55" data-name="Rectangle 55" transform="translate(1312 634)" fill="#fff" stroke="#cecece" stroke-width="1">
        <path d="M0,0H97a0,0,0,0,1,0,0V3a8,8,0,0,1-8,8H7A7,7,0,0,1,0,4V0A0,0,0,0,1,0,0Z" stroke="none"/>
        <path d="M1,.5H96a.5.5,0,0,1,.5.5V3A7.5,7.5,0,0,1,89,10.5H7A6.5,6.5,0,0,1,.5,4V1A.5.5,0,0,1,1,.5Z" fill="none"/>
      </g>
      <g id="Rectangle_7" data-name="Rectangle 7" transform="translate(1042.209 247.011)" fill="#fff" stroke="#d9d9d9" stroke-width="1">
        <rect width="636.791" height="367.908" rx="5" stroke="none"/>
        <rect x="0.5" y="0.5" width="635.791" height="366.908" rx="4.5" fill="none"/>
      </g>
      <g id="Ellipse_4" data-name="Ellipse 4" transform="translate(1357 231)" fill="#d1d1d1" stroke="#cecece" stroke-width="1">
        <circle cx="4" cy="4" r="4" stroke="none"/>
        <circle cx="4" cy="4" r="3.5" fill="none"/>
      </g>
    </g>
    <path id="sidebar" d="M0,0H83a0,0,0,0,1,0,0V349.908a0,0,0,0,1,0,0H4a4,4,0,0,1-4-4V0A0,0,0,0,1,0,0Z" transform="translate(1043 264.011)" fill="#343a40"/>
    <rect id="sidebarActive" width="79" height="18" rx="3" transform="translate(1045 290.681)" fill="#007bff"/>
    <g id="title" transform="translate(1.323)">
      <g id="Rectangle_9" data-name="Rectangle 9" transform="translate(1124.677 264.011)" fill="#fff" stroke="#dbdbdb" stroke-linecap="round" stroke-width="1">
        <rect width="552.671" height="30" stroke="none"/>
        <rect x="0.5" y="0.5" width="551.671" height="29" fill="none"/>
      </g>
      <rect id="titleName" width="61" height="12" rx="6" transform="translate(1145.022 273.011)" fill="#ebebeb"/>
    </g>
    <g id="windowAction">
      <circle id="Ellipse_1" data-name="Ellipse 1" cx="3.5" cy="3.5" r="3.5" transform="translate(1049 252)" fill="#f56565"/>
      <circle id="Ellipse_2" data-name="Ellipse 2" cx="3.5" cy="3.5" r="3.5" transform="translate(1061 252)" fill="#e5905b"/>
      <circle id="Ellipse_3" data-name="Ellipse 3" cx="3.5" cy="3.5" r="3.5" transform="translate(1073 252)" fill="#57b13b"/>
    </g>
    <g id="reports" transform="translate(0 -5)" opacity="0">
      <g id="reportCard" transform="translate(0 -1)">
        <g id="Rectangle_35" data-name="Rectangle 35" transform="translate(1276 335)" fill="#fff" stroke="#dbdbdb" stroke-width="1">
          <rect width="252" height="46" stroke="none"/>
          <rect x="0.5" y="0.5" width="251" height="45" fill="none"/>
        </g>
        <rect id="Rectangle_36" data-name="Rectangle 36" width="93" height="9" rx="4.5" transform="translate(1285 342)" fill="#ebebeb"/>
        <rect id="Rectangle_37" data-name="Rectangle 37" width="228" height="4" rx="2" transform="translate(1285 358)" fill="#ebebeb"/>
        <rect id="Rectangle_38" data-name="Rectangle 38" width="101" height="4" rx="2" transform="translate(1285 365)" fill="#ebebeb"/>
      </g>
      <g id="reportCard-2" data-name="reportCard" transform="translate(0 65)">
        <g id="Rectangle_35-2" data-name="Rectangle 35" transform="translate(1276 335)" fill="#fff" stroke="#dbdbdb" stroke-width="1">
          <rect width="252" height="46" stroke="none"/>
          <rect x="0.5" y="0.5" width="251" height="45" fill="none"/>
        </g>
        <rect id="Rectangle_36-2" data-name="Rectangle 36" width="131" height="9" rx="4.5" transform="translate(1285 342)" fill="#ebebeb"/>
        <rect id="Rectangle_37-2" data-name="Rectangle 37" width="174" height="4" rx="2" transform="translate(1285 358)" fill="#ebebeb"/>
        <rect id="Rectangle_38-2" data-name="Rectangle 38" width="82" height="4" rx="2" transform="translate(1285 365)" fill="#ebebeb"/>
      </g>
      <g id="reportCard-3" data-name="reportCard" transform="translate(0 131)">
        <g id="Rectangle_35-3" data-name="Rectangle 35" transform="translate(1276 335)" fill="#fff" stroke="#dbdbdb" stroke-width="1">
          <rect width="252" height="46" stroke="none"/>
          <rect x="0.5" y="0.5" width="251" height="45" fill="none"/>
        </g>
        <rect id="Rectangle_36-3" data-name="Rectangle 36" width="45" height="9" rx="4.5" transform="translate(1285 342)" fill="#ebebeb"/>
        <rect id="Rectangle_37-3" data-name="Rectangle 37" width="228" height="4" rx="2" transform="translate(1285 358)" fill="#ebebeb"/>
      </g>
      <g id="reportCard-4" data-name="reportCard" transform="translate(0 197)">
        <g id="Rectangle_35-4" data-name="Rectangle 35" transform="translate(1276 335)" fill="#fff" stroke="#dbdbdb" stroke-width="1">
          <rect width="252" height="46" stroke="none"/>
          <rect x="0.5" y="0.5" width="251" height="45" fill="none"/>
        </g>
        <rect id="Rectangle_36-4" data-name="Rectangle 36" width="68" height="9" rx="4.5" transform="translate(1285 342)" fill="#ebebeb"/>
        <rect id="Rectangle_37-4" data-name="Rectangle 37" width="142" height="4" rx="2" transform="translate(1285 358)" fill="#ebebeb"/>
      </g>
    </g>
    <g id="tableView" opacity="0">
      <g id="tableRows">
        <rect id="Rectangle_12" data-name="Rectangle 12" width="516.453" height="16" rx="8" transform="translate(1145.022 403.918)" fill="#ebebeb"/>
        <rect id="Rectangle_12-2" data-name="Rectangle 12" width="516.453" height="16" rx="8" transform="translate(1145.022 435.918)" fill="#ebebeb"/>
        <rect id="Rectangle_12-3" data-name="Rectangle 12" width="516.453" height="16" rx="8" transform="translate(1145.022 467.918)" fill="#ebebeb"/>
        <rect id="Rectangle_12-4" data-name="Rectangle 12" width="516.453" height="16" rx="8" transform="translate(1145.022 499.918)" fill="#ebebeb"/>
        <rect id="Rectangle_12-5" data-name="Rectangle 12" width="516.453" height="16" rx="8" transform="translate(1145.022 531.918)" fill="#ebebeb"/>
        <rect id="Rectangle_12-6" data-name="Rectangle 12" width="516.453" height="16" rx="8" transform="translate(1145.022 563.918)" fill="#ebebeb" opacity="0"/>
      </g>
      <g id="searchBar">
        <g id="Rectangle_13" data-name="Rectangle 13" transform="translate(1146.392 305.494)" fill="#fff" stroke="#d9d9d9" stroke-width="1">
          <rect width="245" height="17" rx="8.5" stroke="none"/>
          <rect x="0.5" y="0.5" width="244" height="16" rx="8" fill="none"/>
        </g>
        <g id="Rectangle_14" data-name="Rectangle 14" transform="translate(1396.845 305.494)" fill="#eaeaea" stroke="#eaeaea" stroke-width="1">
          <rect width="53" height="17" rx="8.5" stroke="none"/>
          <rect x="0.5" y="0.5" width="52" height="16" rx="8" fill="none"/>
        </g>
      </g>
      <g id="tableHead">
        <g id="Rectangle_15" data-name="Rectangle 15" transform="translate(1144.78 377.181)" fill="#fff" stroke="#d9d9d9" stroke-width="1">
          <rect width="58" height="13" rx="6.5" stroke="none"/>
          <rect x="0.5" y="0.5" width="57" height="12" rx="6" fill="none"/>
        </g>
        <g id="Rectangle_15-2" data-name="Rectangle 15" transform="translate(1202.673 377.181)" fill="#fff" stroke="#d9d9d9" stroke-width="1">
          <rect width="218" height="13" rx="6.5" stroke="none"/>
          <rect x="0.5" y="0.5" width="217" height="12" rx="6" fill="none"/>
        </g>
        <g id="Rectangle_15-3" data-name="Rectangle 15" transform="translate(1420.207 377.181)" fill="#fff" stroke="#d9d9d9" stroke-width="1">
          <rect width="113" height="13" rx="6.5" stroke="none"/>
          <rect x="0.5" y="0.5" width="112" height="12" rx="6" fill="none"/>
        </g>
        <g id="Rectangle_16" data-name="Rectangle 16" transform="translate(1533.475 377.181)" fill="#fff" stroke="#d9d9d9" stroke-width="1">
          <rect width="128" height="13" rx="6.5" stroke="none"/>
          <rect x="0.5" y="0.5" width="127" height="12" rx="6" fill="none"/>
        </g>
      </g>
    </g>
    <g id="invoiceForm" transform="translate(2 -6)" opacity="0">
      <rect id="Rectangle_23" data-name="Rectangle 23" width="79" height="17" rx="8.5" transform="translate(1246 332)" fill="#ebebeb"/>
      <rect id="Rectangle_24" data-name="Rectangle 24" width="31" height="17" rx="8.5" transform="translate(1527 332)" fill="#007bff"/>
      <g id="Rectangle_25" data-name="Rectangle 25" transform="translate(1246 398)" fill="#fff" stroke="#dbdbdb" stroke-width="1">
        <rect width="152" height="15" rx="7.5" stroke="none"/>
        <rect x="0.5" y="0.5" width="151" height="14" rx="7" fill="none"/>
      </g>
      <g id="Rectangle_27" data-name="Rectangle 27" transform="translate(1406 398)" fill="#fff" stroke="#dbdbdb" stroke-width="1">
        <rect width="152" height="15" rx="7.5" stroke="none"/>
        <rect x="0.5" y="0.5" width="151" height="14" rx="7" fill="none"/>
      </g>
      <rect id="Rectangle_28" data-name="Rectangle 28" width="71" height="8" rx="4" transform="translate(1246 383)" fill="#ebebeb"/>
      <rect id="Rectangle_29" data-name="Rectangle 29" width="43" height="8" rx="4" transform="translate(1406 383)" fill="#ebebeb"/>
      <g id="Rectangle_30" data-name="Rectangle 30" transform="translate(1246 445)" fill="#fff" stroke="#dbdbdb" stroke-width="1">
        <rect width="152" height="15" rx="7.5" stroke="none"/>
        <rect x="0.5" y="0.5" width="151" height="14" rx="7" fill="none"/>
      </g>
      <rect id="Rectangle_31" data-name="Rectangle 31" width="43" height="8" rx="4" transform="translate(1246 430)" fill="#ebebeb"/>
      <g id="Rectangle_32" data-name="Rectangle 32" transform="translate(1246 492)" fill="#fff" stroke="#dbdbdb" stroke-width="1">
        <rect width="312" height="52" rx="7" stroke="none"/>
        <rect x="0.5" y="0.5" width="311" height="51" rx="6.5" fill="none"/>
      </g>
      <g id="Rectangle_33" data-name="Rectangle 33" transform="translate(1246 551)" fill="#fff" stroke="#dbdbdb" stroke-width="1">
        <rect width="25" height="13" rx="6.5" stroke="none"/>
        <rect x="0.5" y="0.5" width="24" height="12" rx="6" fill="none"/>
      </g>
      <rect id="Rectangle_34" data-name="Rectangle 34" width="43" height="8" rx="4" transform="translate(1246 477)" fill="#ebebeb"/>
    </g>
    <g id="chartOfAccounts" transform="translate(-56 -5)">
      <rect id="Rectangle_23-2" data-name="Rectangle 23" width="43" height="9" rx="4.5" transform="translate(1246 332)" fill="#ebebeb"/>
      <rect id="Rectangle_23-3" data-name="Rectangle 23" width="121" height="9" rx="4.5" transform="translate(1257 347)" fill="#ebebeb"/>
      <rect id="Rectangle_23-4" data-name="Rectangle 23" width="61" height="9" rx="4.5" transform="translate(1257 362)" fill="#ebebeb"/>
      <rect id="Rectangle_23-5" data-name="Rectangle 23" width="91" height="9" rx="4.5" transform="translate(1260 377)" fill="#ebebeb"/>
      <rect id="Rectangle_23-6" data-name="Rectangle 23" width="126" height="9" rx="4.5" transform="translate(1269 392)" fill="#ebebeb"/>
      <rect id="Rectangle_23-7" data-name="Rectangle 23" width="61" height="9" rx="4.5" transform="translate(1269 407)" fill="#ebebeb"/>
      <rect id="Rectangle_23-8" data-name="Rectangle 23" width="79" height="9" rx="4.5" transform="translate(1246 422)" fill="#ebebeb"/>
      <rect id="Rectangle_23-9" data-name="Rectangle 23" width="97" height="9" rx="4.5" transform="translate(1257 437)" fill="#ebebeb"/>
      <rect id="Rectangle_23-10" data-name="Rectangle 23" width="56" height="9" rx="4.5" transform="translate(1269 452)" fill="#ebebeb"/>
      <rect id="Rectangle_23-11" data-name="Rectangle 23" width="85" height="9" rx="4.5" transform="translate(1257 467)" fill="#ebebeb"/>
      <rect id="Rectangle_23-12" data-name="Rectangle 23" width="57" height="9" rx="4.5" transform="translate(1246 482)" fill="#ebebeb"/>
      <rect id="Rectangle_23-13" data-name="Rectangle 23" width="69" height="9" rx="4.5" transform="translate(1269 513)" fill="#ebebeb"/>
      <rect id="Rectangle_23-14" data-name="Rectangle 23" width="91" height="9" rx="4.5" transform="translate(1282 529)" fill="#ebebeb"/>
      <rect id="Rectangle_23-15" data-name="Rectangle 23" width="67" height="9" rx="4.5" transform="translate(1269 545)" fill="#ebebeb"/>
      <rect id="Rectangle_39" data-name="Rectangle 39" width="116" height="9" rx="4.5" transform="translate(1257 498)" fill="#ebebeb"/>
    </g>
  </g>
</svg>
