<svg xmlns="http://www.w3.org/2000/svg" width="149" height="222" viewBox="0 0 149 222">
  <g id="chartOfAccounts" transform="translate(-1246 -332)">
    <rect id="Rectangle_23" data-name="Rectangle 23" width="43" height="9" rx="4.5" transform="translate(1246 332)" fill="#ebebeb"/>
    <rect id="Rectangle_23-2" data-name="Rectangle 23" width="121" height="9" rx="4.5" transform="translate(1257 347)" fill="#ebebeb"/>
    <rect id="Rectangle_23-3" data-name="Rectangle 23" width="61" height="9" rx="4.5" transform="translate(1257 362)" fill="#ebebeb"/>
    <rect id="Rectangle_23-4" data-name="Rectangle 23" width="91" height="9" rx="4.5" transform="translate(1260 377)" fill="#ebebeb"/>
    <rect id="Rectangle_23-5" data-name="Rectangle 23" width="126" height="9" rx="4.5" transform="translate(1269 392)" fill="#ebebeb"/>
    <rect id="Rectangle_23-6" data-name="Rectangle 23" width="61" height="9" rx="4.5" transform="translate(1269 407)" fill="#ebebeb"/>
    <rect id="Rectangle_23-7" data-name="Rectangle 23" width="79" height="9" rx="4.5" transform="translate(1246 422)" fill="#ebebeb"/>
    <rect id="Rectangle_23-8" data-name="Rectangle 23" width="97" height="9" rx="4.5" transform="translate(1257 437)" fill="#ebebeb"/>
    <rect id="Rectangle_23-9" data-name="Rectangle 23" width="56" height="9" rx="4.5" transform="translate(1269 452)" fill="#ebebeb"/>
    <rect id="Rectangle_23-10" data-name="Rectangle 23" width="85" height="9" rx="4.5" transform="translate(1257 467)" fill="#ebebeb"/>
    <rect id="Rectangle_23-11" data-name="Rectangle 23" width="57" height="9" rx="4.5" transform="translate(1246 482)" fill="#ebebeb"/>
    <rect id="Rectangle_23-12" data-name="Rectangle 23" width="69" height="9" rx="4.5" transform="translate(1269 513)" fill="#ebebeb"/>
    <rect id="Rectangle_23-13" data-name="Rectangle 23" width="91" height="9" rx="4.5" transform="translate(1282 529)" fill="#ebebeb"/>
    <rect id="Rectangle_23-14" data-name="Rectangle 23" width="67" height="9" rx="4.5" transform="translate(1269 545)" fill="#ebebeb"/>
    <rect id="Rectangle_39" data-name="Rectangle 39" width="116" height="9" rx="4.5" transform="translate(1257 498)" fill="#ebebeb"/>
  </g>
</svg>
