<svg xmlns="http://www.w3.org/2000/svg" xmlns:xlink="http://www.w3.org/1999/xlink" width="921" height="543" viewBox="0 0 921 543">
  <defs>
    <filter id="inv_3_rect" x="243" y="2" width="436" height="541" filterUnits="userSpaceOnUse">
      <feOffset dy="3" input="SourceAlpha"/>
      <feGaussianBlur stdDeviation="6" result="blur"/>
      <feFlood flood-opacity="0.161"/>
      <feComposite operator="in" in2="blur"/>
      <feComposite in="SourceGraphic"/>
    </filter>
    <filter id="inv_2_rect" x="243" y="2" width="436" height="541" filterUnits="userSpaceOnUse">
      <feOffset dy="3" input="SourceAlpha"/>
      <feGaussianBlur stdDeviation="6" result="blur-2"/>
      <feFlood flood-opacity="0.161"/>
      <feComposite operator="in" in2="blur-2"/>
      <feComposite in="SourceGraphic"/>
    </filter>
    <filter id="inv_1_rect" x="243" y="2" width="436" height="541" filterUnits="userSpaceOnUse">
      <feOffset dy="3" input="SourceAlpha"/>
      <feGaussianBlur stdDeviation="6" result="blur-3"/>
      <feFlood flood-opacity="0.161"/>
      <feComposite operator="in" in2="blur-3"/>
      <feComposite in="SourceGraphic"/>
    </filter>
  </defs>
  <g id="InvoicesNew" transform="translate(-2912 -603)">
    <g id="Rectangle_132" data-name="Rectangle 132" transform="translate(2912 603)" fill="#fff" stroke="#707070" stroke-width="1" opacity="0">
      <rect width="921" height="539" stroke="none"/>
      <rect x="0.5" y="0.5" width="920" height="538" fill="none"/>
    </g>
    <g id="Invoices" transform="translate(665 -642)">
      <g id="Invoice3" transform="translate(-797 1035)">
        <g transform="matrix(1, 0, 0, 1, 3044, 210)" filter="url(#inv_3_rect)">
          <rect id="inv_3_rect-2" data-name="inv_3_rect" width="400" height="505" transform="translate(261 17)" fill="#fff"/>
        </g>
        <path id="Path_8" data-name="Path 8" d="M2397.333,1306.657l4.037-5.3,5.888,4.508-2.6,3.538,7.4-7.468h12.284l-10.941,10.708v9.988l-10.9-11.06-.835-5.505Z" transform="translate(955 -1034)" fill="#626090"/>
        <g id="InvoiceInfo" transform="translate(195 24)">
          <text id="INVOICE" transform="translate(3402 319)" fill="#626090" font-size="14" font-family="Catamaran-Bold, Catamaran" font-weight="700"><tspan x="0" y="0">INVOICE</tspan></text>
          <rect id="Rectangle_58" data-name="Rectangle 58" width="36" height="5" rx="2.5" transform="translate(3420 327)" fill="#8e8cb1" opacity="0.6"/>
        </g>
        <g id="Notice" transform="translate(195 31)">
          <rect id="Rectangle_64" data-name="Rectangle 64" width="299" height="3" transform="translate(3156 648)" fill="#8e8cb1"/>
          <rect id="Rectangle_65" data-name="Rectangle 65" width="276" height="4" rx="2" transform="translate(3156 656)" fill="#d9d9d9"/>
          <text id="Notice-2" data-name="Notice" transform="translate(3156 644)" fill="#626090" font-size="8" font-family="Catamaran-Bold, Catamaran" font-weight="700"><tspan x="0" y="0">Notice</tspan></text>
          <rect id="Rectangle_72" data-name="Rectangle 72" width="180" height="4" rx="2" transform="translate(3156 665)" fill="#d9d9d9"/>
        </g>
        <g id="Table" transform="translate(195 -31)">
          <rect id="Rectangle_63" data-name="Rectangle 63" width="299" height="151" transform="translate(3156 429)" fill="none"/>
          <text id="No." transform="translate(3159 440)" fill="#626090" font-size="6" font-family="Catamaran-Bold, Catamaran" font-weight="700"><tspan x="0" y="0">No.</tspan></text>
          <rect id="Rectangle_73" data-name="Rectangle 73" width="9" height="4" rx="2" transform="translate(3159 455)" fill="#8e8cb1" opacity="0.4"/>
          <text id="Item_Description" data-name="Item Description" transform="translate(3173 440)" fill="#626090" font-size="6" font-family="Catamaran-Bold, Catamaran" font-weight="700"><tspan x="0" y="0">Item Description</tspan></text>
          <text id="Price" transform="translate(3302 440)" fill="#626090" font-size="6" font-family="Catamaran-Bold, Catamaran" font-weight="700"><tspan x="0" y="0">Price</tspan></text>
          <text id="Quantity" transform="translate(3362 440)" fill="#626090" font-size="6" font-family="Catamaran-Bold, Catamaran" font-weight="700"><tspan x="0" y="0">Quantity</tspan></text>
          <text id="Sub_Total" data-name="Sub Total" transform="translate(3422 440)" fill="#626090" font-size="6" font-family="Catamaran-Bold, Catamaran" font-weight="700"><tspan x="0" y="0">Sub Total</tspan></text>
          <rect id="Rectangle_74" data-name="Rectangle 74" width="93" height="4" rx="2" transform="translate(3173 455)" fill="#8e8cb1" opacity="0.4"/>
          <rect id="Rectangle_75" data-name="Rectangle 75" width="14" height="4" rx="2" transform="translate(3362 455)" fill="#8e8cb1" opacity="0.4"/>
          <rect id="Rectangle_76" data-name="Rectangle 76" width="17" height="4" rx="1" transform="translate(3426 455)" fill="#8e8cb1" opacity="0.4"/>
          <rect id="Rectangle_77" data-name="Rectangle 77" width="19" height="4" rx="1" transform="translate(3306 455)" fill="#8e8cb1" opacity="0.4"/>
          <text id="_" data-name="$" transform="translate(3302 458)" fill="#8e8cb1" font-size="4" font-family="Catamaran-ExtraBold, Catamaran" font-weight="800" opacity="0.4"><tspan x="0" y="0">$</tspan></text>
          <text id="_2" data-name="$" transform="translate(3422 458)" fill="#8e8cb1" font-size="4" font-family="Catamaran-ExtraBold, Catamaran" font-weight="800" opacity="0.4"><tspan x="0" y="0">$</tspan></text>
          <text id="TAX_5_" data-name="TAX 5%" transform="translate(3362 536)" fill="#626090" font-size="6" font-family="Catamaran-Bold, Catamaran" font-weight="700"><tspan x="0" y="0">TAX </tspan><tspan y="0" font-family="Montserrat-Bold, Montserrat">5%</tspan></text>
          <text id="_3" data-name="$" transform="translate(3420 552)" fill="#8e8cb1" font-size="4" font-family="Catamaran-ExtraBold, Catamaran" font-weight="800" opacity="0.4"><tspan x="0" y="0">$</tspan></text>
          <text id="TOTAL_COST" data-name="TOTAL COST" transform="translate(3420 536)" fill="#626090" font-size="6" font-family="Catamaran-Bold, Catamaran" font-weight="700"><tspan x="0" y="0">TOTAL COST</tspan></text>
          <rect id="Rectangle_96" data-name="Rectangle 96" width="17" height="3" rx="1" transform="translate(3423 549)" fill="#8e8cb1" opacity="0.4"/>
          <rect id="Rectangle_102" data-name="Rectangle 102" width="9" height="4" rx="2" transform="translate(3159 474)" fill="#8e8cb1" opacity="0.4"/>
          <rect id="Rectangle_103" data-name="Rectangle 103" width="108" height="4" rx="2" transform="translate(3173 474)" fill="#8e8cb1" opacity="0.4"/>
          <rect id="Rectangle_104" data-name="Rectangle 104" width="10" height="4" rx="2" transform="translate(3362 474)" fill="#8e8cb1" opacity="0.4"/>
          <rect id="Rectangle_105" data-name="Rectangle 105" width="12" height="4" rx="1" transform="translate(3426 474)" fill="#8e8cb1" opacity="0.4"/>
          <rect id="Rectangle_106" data-name="Rectangle 106" width="12" height="4" rx="1" transform="translate(3306 474)" fill="#8e8cb1" opacity="0.4"/>
          <text id="_4" data-name="$" transform="translate(3302 477)" fill="#8e8cb1" font-size="4" font-family="Catamaran-ExtraBold, Catamaran" font-weight="800" opacity="0.4"><tspan x="0" y="0">$</tspan></text>
          <text id="_5" data-name="$" transform="translate(3422 477)" fill="#8e8cb1" font-size="4" font-family="Catamaran-ExtraBold, Catamaran" font-weight="800" opacity="0.4"><tspan x="0" y="0">$</tspan></text>
          <rect id="Rectangle_107" data-name="Rectangle 107" width="9" height="4" rx="2" transform="translate(3159 493)" fill="#8e8cb1" opacity="0.4"/>
          <rect id="Rectangle_108" data-name="Rectangle 108" width="72" height="4" rx="2" transform="translate(3173 493)" fill="#8e8cb1" opacity="0.4"/>
          <rect id="Rectangle_109" data-name="Rectangle 109" width="15" height="4" rx="2" transform="translate(3362 493)" fill="#8e8cb1" opacity="0.4"/>
          <rect id="Rectangle_110" data-name="Rectangle 110" width="14" height="4" rx="1" transform="translate(3426 493)" fill="#8e8cb1" opacity="0.4"/>
          <rect id="Rectangle_111" data-name="Rectangle 111" width="22" height="4" rx="1" transform="translate(3306 493)" fill="#8e8cb1" opacity="0.4"/>
          <text id="_6" data-name="$" transform="translate(3302 496)" fill="#8e8cb1" font-size="4" font-family="Catamaran-ExtraBold, Catamaran" font-weight="800" opacity="0.4"><tspan x="0" y="0">$</tspan></text>
          <text id="_7" data-name="$" transform="translate(3422 496)" fill="#8e8cb1" font-size="4" font-family="Catamaran-ExtraBold, Catamaran" font-weight="800" opacity="0.4"><tspan x="0" y="0">$</tspan></text>
          <rect id="Rectangle_112" data-name="Rectangle 112" width="9" height="4" rx="2" transform="translate(3159 512)" fill="#8e8cb1" opacity="0.4"/>
          <rect id="Rectangle_113" data-name="Rectangle 113" width="108" height="4" rx="2" transform="translate(3173 512)" fill="#8e8cb1" opacity="0.4"/>
          <rect id="Rectangle_114" data-name="Rectangle 114" width="10" height="4" rx="2" transform="translate(3362 512)" fill="#8e8cb1" opacity="0.4"/>
          <rect id="Rectangle_115" data-name="Rectangle 115" width="16" height="4" rx="1" transform="translate(3426 512)" fill="#8e8cb1" opacity="0.4"/>
          <rect id="Rectangle_116" data-name="Rectangle 116" width="12" height="4" rx="1" transform="translate(3306 512)" fill="#8e8cb1" opacity="0.4"/>
          <text id="_8" data-name="$" transform="translate(3302 515)" fill="#8e8cb1" font-size="4" font-family="Catamaran-ExtraBold, Catamaran" font-weight="800" opacity="0.4"><tspan x="0" y="0">$</tspan></text>
          <text id="_9" data-name="$" transform="translate(3422 515)" fill="#8e8cb1" font-size="4" font-family="Catamaran-ExtraBold, Catamaran" font-weight="800" opacity="0.4"><tspan x="0" y="0">$</tspan></text>
          <text id="_10" data-name="$" transform="translate(3362 552)" fill="#8e8cb1" font-size="4" font-family="Catamaran-ExtraBold, Catamaran" font-weight="800" opacity="0.4"><tspan x="0" y="0">$</tspan></text>
          <rect id="Rectangle_123" data-name="Rectangle 123" width="17" height="3" rx="1" transform="translate(3366 549)" fill="#8e8cb1" opacity="0.4"/>
        </g>
        <g id="BillAddress" transform="translate(17 -32)">
          <text id="RECIPIENT" transform="translate(3333 377)" fill="#626090" font-size="6" font-family="Catamaran-Bold, Catamaran" font-weight="700"><tspan x="0" y="0">RECIPIENT</tspan></text>
          <rect id="Rectangle_126" data-name="Rectangle 126" width="49" height="3" rx="1.5" transform="translate(3333 387)" fill="#8e8cb1" opacity="0.4"/>
          <rect id="Rectangle_127" data-name="Rectangle 127" width="67" height="3" rx="1.5" transform="translate(3333 393)" fill="#8e8cb1" opacity="0.4"/>
          <rect id="Rectangle_128" data-name="Rectangle 128" width="30" height="3" rx="1.5" transform="translate(3333 399)" fill="#8e8cb1" opacity="0.4"/>
        </g>
        <g id="ComAddress" transform="translate(173 7)">
          <text id="Frappe_Technologies" data-name="Frappe Technologies" transform="translate(3369 268)" fill="#626090" font-size="12" font-family="Catamaran-Bold, Catamaran" font-weight="700"><tspan x="0" y="0">Frappe Technologies</tspan></text>
          <rect id="Rectangle_100" data-name="Rectangle 100" width="49" height="3" rx="1.5" transform="translate(3429 284)" fill="#8e8cb1" opacity="0.4"/>
          <rect id="Rectangle_124" data-name="Rectangle 124" width="86" height="3" rx="1.5" transform="translate(3392 290)" fill="#8e8cb1" opacity="0.4"/>
          <rect id="Rectangle_125" data-name="Rectangle 125" width="66" height="3" rx="1.5" transform="translate(3412 296)" fill="#8e8cb1" opacity="0.4"/>
        </g>
      </g>
      <g id="Invoice2" transform="translate(-797 1035)">
        <g transform="matrix(1, 0, 0, 1, 3044, 210)" filter="url(#inv_2_rect)">
          <rect id="inv_2_rect-2" data-name="inv_2_rect" width="400" height="505" transform="translate(261 17)" fill="#fff"/>
        </g>
        <g id="ComAddress-2" data-name="ComAddress" transform="translate(17 3)">
          <text id="Frappe_Technologies-2" data-name="Frappe Technologies" transform="translate(3369 268)" fill="#0f8e83" font-size="12" font-family="Catamaran-Bold, Catamaran" font-weight="700"><tspan x="0" y="0">Frappe Technologies</tspan></text>
          <rect id="Rectangle_100-2" data-name="Rectangle 100" width="86" height="6" rx="3" transform="translate(3369 274)" fill="#d9d9d9"/>
          <path id="Path_10" data-name="Path 10" d="M2397.333,1306.657l4.037-5.3,5.888,4.508-2.6,3.538,7.4-7.468h12.284l-10.941,10.708v9.988l-10.9-11.06-.835-5.505Z" transform="translate(938 -1041)" fill="#464646"/>
        </g>
        <g id="BillAddress-2" data-name="BillAddress" transform="translate(206 -27)">
          <text id="Billed_To" data-name="Billed To" transform="translate(3405 377)" fill="#333" font-size="10" font-family="Catamaran-Bold, Catamaran" font-weight="700"><tspan x="0" y="0">Billed To</tspan></text>
          <rect id="Rectangle_59" data-name="Rectangle 59" width="82" height="6" rx="3" transform="translate(3362 387)" fill="#d9d9d9"/>
          <rect id="Rectangle_60" data-name="Rectangle 60" width="54" height="6" rx="3" transform="translate(3390 396)" fill="#d9d9d9"/>
          <rect id="Rectangle_61" data-name="Rectangle 61" width="63" height="6" rx="3" transform="translate(3381 405)" fill="#d9d9d9"/>
        </g>
        <g id="InvoiceInfo-2" data-name="InvoiceInfo" transform="translate(195 -36)">
          <text id="INVOICE_311" data-name="INVOICE #311" transform="translate(3394 308)" fill="#0c8878" font-size="10" font-family="Catamaran-Bold, Catamaran" font-weight="700"><tspan x="0" y="0">INVOICE </tspan><tspan y="0" font-family="Montserrat-Bold, Montserrat">#311</tspan></text>
          <rect id="Rectangle_58-2" data-name="Rectangle 58" width="36" height="6" rx="3" transform="translate(3420 313)" fill="#d9d9d9"/>
        </g>
        <g id="Notice-3" data-name="Notice" transform="translate(195 31)">
          <rect id="Rectangle_64-2" data-name="Rectangle 64" width="299" height="3" transform="translate(3156 648)" fill="#017f7b"/>
          <rect id="Rectangle_65-2" data-name="Rectangle 65" width="276" height="4" rx="2" transform="translate(3156 656)" fill="#d9d9d9"/>
          <text id="Notice-4" data-name="Notice" transform="translate(3156 644)" font-size="8" font-family="Catamaran-Bold, Catamaran" font-weight="700"><tspan x="0" y="0">Notice</tspan></text>
          <rect id="Rectangle_72-2" data-name="Rectangle 72" width="180" height="4" rx="2" transform="translate(3156 665)" fill="#d9d9d9"/>
        </g>
        <g id="Table-2" data-name="Table" transform="translate(195 -31)">
          <rect id="Rectangle_63-2" data-name="Rectangle 63" width="299" height="151" transform="translate(3156 429)" fill="#fff"/>
          <rect id="Rectangle_68" data-name="Rectangle 68" width="299" height="1" transform="translate(3156 466)" fill="#d0d0d0"/>
          <rect id="Rectangle_70" data-name="Rectangle 70" width="299" height="1" transform="translate(3156 485)" fill="#d0d0d0"/>
          <rect id="Rectangle_71" data-name="Rectangle 71" width="299" height="1" transform="translate(3156 504)" fill="#d0d0d0"/>
          <text id="No.-2" data-name="No." transform="translate(3159 440)" font-size="6" font-family="Catamaran-Bold, Catamaran" font-weight="700"><tspan x="0" y="0">No.</tspan></text>
          <rect id="Rectangle_73-2" data-name="Rectangle 73" width="9" height="4" rx="2" transform="translate(3159 455)" fill="#d9d9d9"/>
          <text id="Item_Description-2" data-name="Item Description" transform="translate(3173 440)" font-size="6" font-family="Catamaran-Bold, Catamaran" font-weight="700"><tspan x="0" y="0">Item Description</tspan></text>
          <text id="Price-2" data-name="Price" transform="translate(3302 440)" font-size="6" font-family="Catamaran-Bold, Catamaran" font-weight="700"><tspan x="0" y="0">Price</tspan></text>
          <text id="Quantity-2" data-name="Quantity" transform="translate(3362 440)" font-size="6" font-family="Catamaran-Bold, Catamaran" font-weight="700"><tspan x="0" y="0">Quantity</tspan></text>
          <text id="Sub_Total-2" data-name="Sub Total" transform="translate(3430 440)" font-size="6" font-family="Catamaran-Bold, Catamaran" font-weight="700"><tspan x="0" y="0">Sub Total</tspan></text>
          <rect id="Rectangle_74-2" data-name="Rectangle 74" width="93" height="4" rx="2" transform="translate(3173 455)" fill="#d9d9d9"/>
          <rect id="Rectangle_75-2" data-name="Rectangle 75" width="14" height="4" rx="2" transform="translate(3362 455)" fill="#d9d9d9"/>
          <rect id="Rectangle_76-2" data-name="Rectangle 76" width="17" height="4" rx="1" transform="translate(3434 455)" fill="#d9d9d9"/>
          <rect id="Rectangle_121" data-name="Rectangle 121" width="38" height="16" transform="translate(3379 560)" fill="#ebebeb"/>
          <rect id="Rectangle_77-2" data-name="Rectangle 77" width="19" height="4" rx="1" transform="translate(3306 455)" fill="#d9d9d9"/>
          <text id="_11" data-name="$" transform="translate(3302 458)" fill="#d9d9d9" font-size="4" font-family="Catamaran-ExtraBold, Catamaran" font-weight="800"><tspan x="0" y="0">$</tspan></text>
          <text id="_12" data-name="$" transform="translate(3430 458)" fill="#d9d9d9" font-size="4" font-family="Catamaran-ExtraBold, Catamaran" font-weight="800"><tspan x="0" y="0">$</tspan></text>
          <rect id="Rectangle_94" data-name="Rectangle 94" width="76" height="1" transform="translate(3379 542)" fill="#d0d0d0"/>
          <text id="Sub_Total-3" data-name="Sub Total" transform="translate(3385 535)" font-size="5" font-family="Catamaran-Bold, Catamaran" font-weight="700"><tspan x="0" y="0">Sub Total</tspan></text>
          <text id="Tax_5_2" data-name="Tax 5%" transform="translate(3385 553)" font-size="5" font-family="Catamaran-Bold, Catamaran" font-weight="700"><tspan x="0" y="0">Tax </tspan><tspan y="0" font-family="Montserrat-Bold, Montserrat">5%</tspan></text>
          <text id="_13" data-name="$" transform="translate(3430 552)" fill="#646464" font-size="4" font-family="Catamaran-ExtraBold, Catamaran" font-weight="800"><tspan x="0" y="0">$</tspan></text>
          <text id="Total" transform="translate(3385 570)" font-size="7" font-family="Catamaran-Bold, Catamaran" font-weight="700"><tspan x="0" y="0">Total</tspan></text>
          <rect id="Rectangle_96-2" data-name="Rectangle 96" width="17" height="3" rx="1" transform="translate(3434 549)" fill="#727272"/>
          <rect id="Rectangle_101" data-name="Rectangle 101" width="299" height="1" transform="translate(3156 447)" fill="#d0d0d0"/>
          <rect id="Rectangle_102-2" data-name="Rectangle 102" width="9" height="4" rx="2" transform="translate(3159 474)" fill="#d9d9d9"/>
          <rect id="Rectangle_103-2" data-name="Rectangle 103" width="108" height="4" rx="2" transform="translate(3173 474)" fill="#d9d9d9"/>
          <rect id="Rectangle_104-2" data-name="Rectangle 104" width="10" height="4" rx="2" transform="translate(3362 474)" fill="#d9d9d9"/>
          <rect id="Rectangle_105-2" data-name="Rectangle 105" width="12" height="4" rx="1" transform="translate(3434 474)" fill="#d9d9d9"/>
          <rect id="Rectangle_106-2" data-name="Rectangle 106" width="12" height="4" rx="1" transform="translate(3306 474)" fill="#d9d9d9"/>
          <text id="_14" data-name="$" transform="translate(3302 477)" fill="#d9d9d9" font-size="4" font-family="Catamaran-ExtraBold, Catamaran" font-weight="800"><tspan x="0" y="0">$</tspan></text>
          <text id="_15" data-name="$" transform="translate(3430 477)" fill="#d9d9d9" font-size="4" font-family="Catamaran-ExtraBold, Catamaran" font-weight="800"><tspan x="0" y="0">$</tspan></text>
          <rect id="Rectangle_107-2" data-name="Rectangle 107" width="9" height="4" rx="2" transform="translate(3159 493)" fill="#d9d9d9"/>
          <rect id="Rectangle_108-2" data-name="Rectangle 108" width="72" height="4" rx="2" transform="translate(3173 493)" fill="#d9d9d9"/>
          <rect id="Rectangle_109-2" data-name="Rectangle 109" width="15" height="4" rx="2" transform="translate(3362 493)" fill="#d9d9d9"/>
          <rect id="Rectangle_110-2" data-name="Rectangle 110" width="14" height="4" rx="1" transform="translate(3434 493)" fill="#d9d9d9"/>
          <rect id="Rectangle_111-2" data-name="Rectangle 111" width="22" height="4" rx="1" transform="translate(3306 493)" fill="#d9d9d9"/>
          <text id="_16" data-name="$" transform="translate(3302 496)" fill="#d9d9d9" font-size="4" font-family="Catamaran-ExtraBold, Catamaran" font-weight="800"><tspan x="0" y="0">$</tspan></text>
          <text id="_17" data-name="$" transform="translate(3430 496)" fill="#d9d9d9" font-size="4" font-family="Catamaran-ExtraBold, Catamaran" font-weight="800"><tspan x="0" y="0">$</tspan></text>
          <rect id="Rectangle_112-2" data-name="Rectangle 112" width="9" height="4" rx="2" transform="translate(3159 512)" fill="#d9d9d9"/>
          <rect id="Rectangle_113-2" data-name="Rectangle 113" width="108" height="4" rx="2" transform="translate(3173 512)" fill="#d9d9d9"/>
          <rect id="Rectangle_114-2" data-name="Rectangle 114" width="10" height="4" rx="2" transform="translate(3362 512)" fill="#d9d9d9"/>
          <rect id="Rectangle_115-2" data-name="Rectangle 115" width="16" height="4" rx="1" transform="translate(3434 512)" fill="#d9d9d9"/>
          <rect id="Rectangle_116-2" data-name="Rectangle 116" width="12" height="4" rx="1" transform="translate(3306 512)" fill="#d9d9d9"/>
          <text id="_18" data-name="$" transform="translate(3302 515)" fill="#d9d9d9" font-size="4" font-family="Catamaran-ExtraBold, Catamaran" font-weight="800"><tspan x="0" y="0">$</tspan></text>
          <text id="_19" data-name="$" transform="translate(3430 515)" fill="#d9d9d9" font-size="4" font-family="Catamaran-ExtraBold, Catamaran" font-weight="800"><tspan x="0" y="0">$</tspan></text>
          <rect id="Rectangle_117" data-name="Rectangle 117" width="299" height="1" transform="translate(3156 523)" fill="#d0d0d0"/>
          <rect id="Rectangle_118" data-name="Rectangle 118" width="76" height="1" transform="translate(3379 559)" fill="#d0d0d0"/>
          <text id="_20" data-name="$" transform="translate(3430 534)" fill="#d9d9d9" font-size="4" font-family="Catamaran-ExtraBold, Catamaran" font-weight="800"><tspan x="0" y="0">$</tspan></text>
          <rect id="Rectangle_119" data-name="Rectangle 119" width="17" height="3" rx="1" transform="translate(3434 531)" fill="#d9d9d9"/>
          <rect id="Rectangle_122" data-name="Rectangle 122" width="38" height="16" transform="translate(3417 560)" fill="#017f7b"/>
          <text id="_21" data-name="$" transform="translate(3430 569)" fill="#d9d9d9" font-size="4" font-family="Catamaran-ExtraBold, Catamaran" font-weight="800"><tspan x="0" y="0">$</tspan></text>
          <rect id="Rectangle_123-2" data-name="Rectangle 123" width="17" height="3" rx="1" transform="translate(3434 566)" fill="#d9d9d9"/>
        </g>
        <g id="BillAddress-3" data-name="BillAddress" transform="translate(17 -27)">
          <text id="John_Brien" data-name="John Brien" transform="translate(3333 377)" fill="#333" font-size="10" font-family="Catamaran-Bold, Catamaran" font-weight="700"><tspan x="0" y="0">John Brien</tspan></text>
          <rect id="Rectangle_60-2" data-name="Rectangle 60" width="111" height="6" rx="3" transform="translate(3333 396)" fill="#d9d9d9"/>
          <rect id="Rectangle_61-2" data-name="Rectangle 61" width="63" height="6" rx="3" transform="translate(3333 405)" fill="#d9d9d9"/>
          <rect id="Rectangle_62" data-name="Rectangle 62" width="36" height="6" rx="3" transform="translate(3333 387)" fill="#d9d9d9"/>
        </g>
      </g>
      <g id="Invoice1" transform="translate(-792 1042)">
        <g transform="matrix(1, 0, 0, 1, 3039, 203)" filter="url(#inv_1_rect)">
          <rect id="inv_1_rect-2" data-name="inv_1_rect" width="400" height="505" transform="translate(261 17)" fill="#fff"/>
        </g>
        <g id="ComAddress-3" data-name="ComAddress" transform="translate(17 3)">
          <text id="Frappe_Technologies-3" data-name="Frappe Technologies" transform="translate(3333 305)" fill="#333" font-size="10" font-family="Catamaran-Bold, Catamaran" font-weight="700"><tspan x="0" y="0">Frappe Technologies</tspan></text>
          <rect id="Rectangle_55" data-name="Rectangle 55" width="122" height="6" rx="3" transform="translate(3333 323)" fill="#d9d9d9"/>
          <rect id="Rectangle_56" data-name="Rectangle 56" width="91" height="6" rx="3" transform="translate(3333 333)" fill="#d9d9d9"/>
          <rect id="Rectangle_57" data-name="Rectangle 57" width="72" height="6" rx="3" transform="translate(3333 343)" fill="#d9d9d9"/>
          <rect id="Rectangle_58-3" data-name="Rectangle 58" width="36" height="6" rx="3" transform="translate(3333 313)" fill="#d9d9d9"/>
          <path id="Path_9" data-name="Path 9" d="M2397.333,1306.657l4.037-5.3,5.888,4.508-2.6,3.538,7.4-7.468h12.284l-10.941,10.708v9.988l-10.9-11.06-.835-5.505Z" transform="translate(947 -1041)" fill="#4e4e4e"/>
        </g>
        <g id="BillAddress-4" data-name="BillAddress" transform="translate(17 14)">
          <text id="Billed_To-2" data-name="Billed To" transform="translate(3333 377)" fill="#333" font-size="10" font-family="Catamaran-Bold, Catamaran" font-weight="700"><tspan x="0" y="0">Billed To</tspan></text>
          <rect id="Rectangle_59-2" data-name="Rectangle 59" width="82" height="6" rx="3" transform="translate(3333 396)" fill="#d9d9d9"/>
          <rect id="Rectangle_60-3" data-name="Rectangle 60" width="111" height="6" rx="3" transform="translate(3333 406)" fill="#d9d9d9"/>
          <rect id="Rectangle_61-3" data-name="Rectangle 61" width="63" height="6" rx="3" transform="translate(3333 416)" fill="#d9d9d9"/>
          <rect id="Rectangle_62-2" data-name="Rectangle 62" width="36" height="6" rx="3" transform="translate(3333 386)" fill="#d9d9d9"/>
        </g>
        <g id="InvoiceInfo-3" data-name="InvoiceInfo" transform="translate(195 36)">
          <text id="INVOICE-2" data-name="INVOICE" transform="translate(3377 283)" fill="#a045c1" font-size="20" font-family="Catamaran-Bold, Catamaran" font-weight="700"><tspan x="0" y="0">INVOICE</tspan></text>
          <text id="Invoice_1" data-name="Invoice #1" transform="translate(3412 305)" fill="#333" font-size="10" font-family="Catamaran-Bold, Catamaran" font-weight="700"><tspan x="0" y="0">Invoice #1</tspan></text>
          <rect id="Rectangle_55-2" data-name="Rectangle 55" width="122" height="6" rx="3" transform="translate(3333 323)" fill="#d9d9d9"/>
          <rect id="Rectangle_56-2" data-name="Rectangle 56" width="91" height="6" rx="3" transform="translate(3364 333)" fill="#d9d9d9"/>
          <rect id="Rectangle_58-4" data-name="Rectangle 58" width="36" height="6" rx="3" transform="translate(3419 313)" fill="#d9d9d9"/>
        </g>
        <g id="Notice-5" data-name="Notice" transform="translate(195 22)">
          <rect id="Rectangle_64-3" data-name="Rectangle 64" width="299" height="3" transform="translate(3156 648)" fill="#a045c1"/>
          <rect id="Rectangle_65-3" data-name="Rectangle 65" width="276" height="4" rx="2" transform="translate(3156 656)" fill="#d9d9d9"/>
          <text id="Notice-6" data-name="Notice" transform="translate(3156 644)" font-size="8" font-family="Catamaran-Bold, Catamaran" font-weight="700"><tspan x="0" y="0">Notice</tspan></text>
          <rect id="Rectangle_72-3" data-name="Rectangle 72" width="180" height="4" rx="2" transform="translate(3156 665)" fill="#d9d9d9"/>
        </g>
        <g id="Table-3" data-name="Table" transform="translate(195 22)">
          <rect id="Rectangle_63-3" data-name="Rectangle 63" width="299" height="182" transform="translate(3156 447)" fill="#fff"/>
          <rect id="Rectangle_67" data-name="Rectangle 67" width="299" height="3" transform="translate(3156 446)" fill="#a045c1"/>
          <rect id="Rectangle_68-2" data-name="Rectangle 68" width="299" height="1" transform="translate(3156 462)" fill="#d0d0d0"/>
          <rect id="Rectangle_69" data-name="Rectangle 69" width="299" height="1" transform="translate(3156 475)" fill="#d0d0d0"/>
          <rect id="Rectangle_70-2" data-name="Rectangle 70" width="299" height="1" transform="translate(3156 488)" fill="#d0d0d0"/>
          <rect id="Rectangle_71-2" data-name="Rectangle 71" width="299" height="1" transform="translate(3156 501)" fill="#d0d0d0"/>
          <text id="No.-3" data-name="No." transform="translate(3159 441)" font-size="6" font-family="Catamaran-Bold, Catamaran" font-weight="700"><tspan x="0" y="0">No.</tspan></text>
          <rect id="Rectangle_73-3" data-name="Rectangle 73" width="9" height="4" rx="2" transform="translate(3159 454)" fill="#d9d9d9"/>
          <text id="Item_Description-3" data-name="Item Description" transform="translate(3173 441)" font-size="6" font-family="Catamaran-Bold, Catamaran" font-weight="700"><tspan x="0" y="0">Item Description</tspan></text>
          <text id="Price-3" data-name="Price" transform="translate(3302 441)" font-size="6" font-family="Catamaran-Bold, Catamaran" font-weight="700"><tspan x="0" y="0">Price</tspan></text>
          <text id="Quantity-3" data-name="Quantity" transform="translate(3362 441)" font-size="6" font-family="Catamaran-Bold, Catamaran" font-weight="700"><tspan x="0" y="0">Quantity</tspan></text>
          <text id="Sub_Total-4" data-name="Sub Total" transform="translate(3430 441)" font-size="6" font-family="Catamaran-Bold, Catamaran" font-weight="700"><tspan x="0" y="0">Sub Total</tspan></text>
          <rect id="Rectangle_74-3" data-name="Rectangle 74" width="93" height="4" rx="2" transform="translate(3173 454)" fill="#d9d9d9"/>
          <rect id="Rectangle_75-3" data-name="Rectangle 75" width="6" height="4" rx="2" transform="translate(3362 454)" fill="#d9d9d9"/>
          <rect id="Rectangle_76-3" data-name="Rectangle 76" width="9" height="4" rx="1" transform="translate(3434 453)" fill="#d9d9d9"/>
          <rect id="Rectangle_77-3" data-name="Rectangle 77" width="14" height="4" rx="1" transform="translate(3306 454)" fill="#d9d9d9"/>
          <text id="_22" data-name="$" transform="translate(3302 456)" fill="#d9d9d9" font-size="4" font-family="Catamaran-ExtraBold, Catamaran" font-weight="800"><tspan x="0" y="0">$</tspan></text>
          <text id="_23" data-name="$" transform="translate(3430 456)" fill="#d9d9d9" font-size="4" font-family="Catamaran-ExtraBold, Catamaran" font-weight="800"><tspan x="0" y="0">$</tspan></text>
          <rect id="Rectangle_78" data-name="Rectangle 78" width="9" height="4" rx="2" transform="translate(3159 467)" fill="#d9d9d9"/>
          <rect id="Rectangle_79" data-name="Rectangle 79" width="79" height="4" rx="2" transform="translate(3173 467)" fill="#d9d9d9"/>
          <rect id="Rectangle_80" data-name="Rectangle 80" width="9" height="4" rx="2" transform="translate(3362 467)" fill="#d9d9d9"/>
          <rect id="Rectangle_81" data-name="Rectangle 81" width="15" height="4" rx="1" transform="translate(3434 467)" fill="#d9d9d9"/>
          <rect id="Rectangle_82" data-name="Rectangle 82" width="9" height="4" rx="1" transform="translate(3306 467)" fill="#d9d9d9"/>
          <text id="_24" data-name="$" transform="translate(3302 470)" fill="#d9d9d9" font-size="4" font-family="Catamaran-ExtraBold, Catamaran" font-weight="800"><tspan x="0" y="0">$</tspan></text>
          <text id="_25" data-name="$" transform="translate(3430 470)" fill="#d9d9d9" font-size="4" font-family="Catamaran-ExtraBold, Catamaran" font-weight="800"><tspan x="0" y="0">$</tspan></text>
          <rect id="Rectangle_83" data-name="Rectangle 83" width="9" height="4" rx="2" transform="translate(3159 480)" fill="#d9d9d9"/>
          <rect id="Rectangle_84" data-name="Rectangle 84" width="54" height="4" rx="2" transform="translate(3173 480)" fill="#d9d9d9"/>
          <rect id="Rectangle_85" data-name="Rectangle 85" width="6" height="4" rx="2" transform="translate(3362 480)" fill="#d9d9d9"/>
          <rect id="Rectangle_86" data-name="Rectangle 86" width="9" height="4" rx="1" transform="translate(3434 480)" fill="#d9d9d9"/>
          <rect id="Rectangle_87" data-name="Rectangle 87" width="11" height="4" rx="1" transform="translate(3306 480)" fill="#d9d9d9"/>
          <text id="_26" data-name="$" transform="translate(3302 483)" fill="#d9d9d9" font-size="4" font-family="Catamaran-ExtraBold, Catamaran" font-weight="800"><tspan x="0" y="0">$</tspan></text>
          <text id="_27" data-name="$" transform="translate(3430 483)" fill="#d9d9d9" font-size="4" font-family="Catamaran-ExtraBold, Catamaran" font-weight="800"><tspan x="0" y="0">$</tspan></text>
          <rect id="Rectangle_88" data-name="Rectangle 88" width="9" height="4" rx="2" transform="translate(3159 493)" fill="#d9d9d9"/>
          <rect id="Rectangle_89" data-name="Rectangle 89" width="84" height="4" rx="2" transform="translate(3173 493)" fill="#d9d9d9"/>
          <rect id="Rectangle_90" data-name="Rectangle 90" width="9" height="4" rx="2" transform="translate(3362 493)" fill="#d9d9d9"/>
          <rect id="Rectangle_91" data-name="Rectangle 91" width="11" height="4" rx="1" transform="translate(3434 493)" fill="#d9d9d9"/>
          <rect id="Rectangle_92" data-name="Rectangle 92" width="7" height="4" rx="1" transform="translate(3306 493)" fill="#d9d9d9"/>
          <text id="_28" data-name="$" transform="translate(3302 496)" fill="#d9d9d9" font-size="4" font-family="Catamaran-ExtraBold, Catamaran" font-weight="800"><tspan x="0" y="0">$</tspan></text>
          <text id="_29" data-name="$" transform="translate(3430 496)" fill="#d9d9d9" font-size="4" font-family="Catamaran-ExtraBold, Catamaran" font-weight="800"><tspan x="0" y="0">$</tspan></text>
          <rect id="Rectangle_93" data-name="Rectangle 93" width="153" height="1" transform="translate(3302 515)" fill="#d0d0d0"/>
          <rect id="Rectangle_94-2" data-name="Rectangle 94" width="153" height="1" transform="translate(3302 529)" fill="#d0d0d0"/>
          <rect id="Rectangle_95" data-name="Rectangle 95" width="153" height="1" transform="translate(3302 543)" fill="#a045c1"/>
          <text id="Sub_Total-5" data-name="Sub Total" transform="translate(3302 510)" font-size="5" font-family="Catamaran-Bold, Catamaran" font-weight="700"><tspan x="0" y="0">Sub Total</tspan></text>
          <text id="Discount" transform="translate(3302 524)" font-size="5" font-family="Catamaran-Bold, Catamaran" font-weight="700"><tspan x="0" y="0">Discount</tspan></text>
          <text id="Tax_5_3" data-name="Tax 5%" transform="translate(3302 538)" font-size="5" font-family="Catamaran-Bold, Catamaran" font-weight="700"><tspan x="0" y="0">Tax </tspan><tspan y="0" font-family="Montserrat-Bold, Montserrat">5%</tspan></text>
          <text id="_30" data-name="$" transform="translate(3430 511)" fill="#646464" font-size="4" font-family="Catamaran-ExtraBold, Catamaran" font-weight="800"><tspan x="0" y="0">$</tspan></text>
          <text id="Total-2" data-name="Total" transform="translate(3302 554)" font-size="7" font-family="Catamaran-Bold, Catamaran" font-weight="700"><tspan x="0" y="0">Total</tspan></text>
          <text id="_31" data-name="$" transform="translate(3430 524)" fill="#6de5ea" font-size="4" font-family="Catamaran-ExtraBold, Catamaran" font-weight="800"><tspan x="0" y="0">$</tspan></text>
          <text id="_32" data-name="$" transform="translate(3430 537)" fill="#ed6666" font-size="4" font-family="Catamaran-ExtraBold, Catamaran" font-weight="800"><tspan x="0" y="0">$</tspan></text>
          <rect id="Rectangle_96-3" data-name="Rectangle 96" width="17" height="4" rx="1" transform="translate(3434 508)" fill="#727272"/>
          <rect id="Rectangle_97" data-name="Rectangle 97" width="9" height="4" rx="1" transform="translate(3434 521)" fill="#6de5ea"/>
          <rect id="Rectangle_98" data-name="Rectangle 98" width="13" height="4" rx="1" transform="translate(3434 534)" fill="#ed6666"/>
          <text id="_33" data-name="$" transform="translate(3429 553)" fill="#6ae6a8" font-size="6" font-family="Catamaran-ExtraBold, Catamaran" font-weight="800"><tspan x="0" y="0">$</tspan></text>
          <rect id="Rectangle_99" data-name="Rectangle 99" width="18" height="4" rx="1" transform="translate(3434 549)" fill="#6ae6a8"/>
        </g>
      </g>
    </g>
  </g>
</svg>
