<svg xmlns="http://www.w3.org/2000/svg" width="170" height="178" viewBox="0 0 170 178">
  <g id="Setup" transform="translate(-2398 -745)">
    <g id="Rectangle_41" data-name="Rectangle 41" transform="translate(2398 745)" fill="none" stroke="#707070" stroke-width="1" opacity="0.3">
      <rect width="170" height="120" stroke="none"/>
      <rect x="0.5" y="0.5" width="169" height="119" fill="none"/>
    </g>
    <text id="Setup_your_account" data-name="Setup your account" transform="translate(2441 771)" fill="#333" font-size="10" font-family="Catamaran-Bold, Catamaran" font-weight="700"><tspan x="0" y="0">Setup your account</tspan></text>
    <g id="section1">
      <rect id="Rectangle_42" data-name="Rectangle 42" width="47" height="8" rx="4" transform="translate(2427 791)" fill="#ebebeb"/>
      <g id="Rectangle_43" data-name="Rectangle 43" transform="translate(2427 805)" fill="none" stroke="#dbdbdb" stroke-width="1">
        <rect width="114" height="10" rx="4" stroke="none"/>
        <rect x="0.5" y="0.5" width="113" height="9" rx="3.5" fill="none"/>
      </g>
      <rect id="Rectangle_44" data-name="Rectangle 44" width="18" height="8" rx="4" transform="translate(2523 819)" fill="#007bff"/>
    </g>
    <g id="section2" transform="translate(26)" opacity="0">
      <rect id="Rectangle_42-2" data-name="Rectangle 42" width="28" height="8" rx="4" transform="translate(2427 791)" fill="#ebebeb"/>
      <g id="Rectangle_43-2" data-name="Rectangle 43" transform="translate(2427 805)" fill="none" stroke="#dbdbdb" stroke-width="1">
        <rect width="114" height="10" rx="4" stroke="none"/>
        <rect x="0.5" y="0.5" width="113" height="9" rx="3.5" fill="none"/>
      </g>
      <rect id="Rectangle_45" data-name="Rectangle 45" width="37" height="8" rx="4" transform="translate(2427 822)" fill="#ebebeb"/>
      <g id="Rectangle_46" data-name="Rectangle 46" transform="translate(2427 836)" fill="none" stroke="#dbdbdb" stroke-width="1">
        <rect width="114" height="10" rx="4" stroke="none"/>
        <rect x="0.5" y="0.5" width="113" height="9" rx="3.5" fill="none"/>
      </g>
      <rect id="Rectangle_44-2" data-name="Rectangle 44" width="16" height="8" rx="4" transform="translate(2525 853)" fill="#007bff"/>
      <rect id="Rectangle_47" data-name="Rectangle 47" width="19" height="8" rx="4" transform="translate(2427 853)" fill="#bebbbb"/>
    </g>
    <g id="section3" transform="translate(26)" opacity="0">
      <rect id="Rectangle_42-3" data-name="Rectangle 42" width="38" height="8" rx="4" transform="translate(2427 791)" fill="#ebebeb"/>
      <g id="Rectangle_43-3" data-name="Rectangle 43" transform="translate(2427 805)" fill="none" stroke="#dbdbdb" stroke-width="1">
        <rect width="114" height="10" rx="4" stroke="none"/>
        <rect x="0.5" y="0.5" width="113" height="9" rx="3.5" fill="none"/>
      </g>
      <rect id="Rectangle_45-2" data-name="Rectangle 45" width="56" height="8" rx="4" transform="translate(2427 822)" fill="#ebebeb"/>
      <g id="Rectangle_46-2" data-name="Rectangle 46" transform="translate(2427 836)" fill="none" stroke="#dbdbdb" stroke-width="1">
        <rect width="114" height="10" rx="4" stroke="none"/>
        <rect x="0.5" y="0.5" width="113" height="9" rx="3.5" fill="none"/>
      </g>
      <rect id="Rectangle_44-3" data-name="Rectangle 44" width="16" height="8" rx="4" transform="translate(2525 915)" fill="#007bff"/>
      <rect id="Rectangle_48" data-name="Rectangle 48" width="19" height="8" rx="4" transform="translate(2427 915)" fill="#bebbbb"/>
      <rect id="Rectangle_49" data-name="Rectangle 49" width="30" height="8" rx="4" transform="translate(2427 853)" fill="#ebebeb"/>
      <g id="Rectangle_50" data-name="Rectangle 50" transform="translate(2427 867)" fill="none" stroke="#dbdbdb" stroke-width="1">
        <rect width="114" height="10" rx="4" stroke="none"/>
        <rect x="0.5" y="0.5" width="113" height="9" rx="3.5" fill="none"/>
      </g>
      <rect id="Rectangle_51" data-name="Rectangle 51" width="30" height="8" rx="4" transform="translate(2427 884)" fill="#ebebeb"/>
      <g id="Rectangle_52" data-name="Rectangle 52" transform="translate(2427 898)" fill="none" stroke="#dbdbdb" stroke-width="1">
        <rect width="114" height="10" rx="4" stroke="none"/>
        <rect x="0.5" y="0.5" width="113" height="9" rx="3.5" fill="none"/>
      </g>
    </g>
  </g>
</svg>
