<svg xmlns="http://www.w3.org/2000/svg" width="921" height="539" viewBox="0 0 921 539">
  <g id="SetupNew" transform="translate(-2912 -603)">
    <g id="Rectangle_132" data-name="Rectangle 132" transform="translate(2912 603)" fill="#fff" stroke="#707070" stroke-width="1" opacity="0.001">
      <rect width="921" height="539" stroke="none"/>
      <rect x="0.5" y="0.5" width="920" height="538" fill="none"/>
    </g>
    <g id="Setup" transform="translate(767.466 -101)">
      <g id="Rectangle_41" data-name="Rectangle 41" transform="translate(2398 745)" fill="#fff" stroke="#acacac" stroke-width="1">
        <rect width="413.083" height="291.588" stroke="none"/>
        <rect x="0.5" y="0.5" width="412.083" height="290.588" fill="none"/>
      </g>
      <text id="Setup_your_account" data-name="Setup your account" transform="translate(2502.486 804.449)" fill="#333" font-size="21" font-family="Catamaran-Bold, Catamaran" font-weight="700"><tspan x="0" y="0">Setup your account</tspan></text>
      <g id="section1" transform="translate(2468.467 856.776)">
        <rect id="Rectangle_42" data-name="Rectangle 42" width="114.205" height="19.439" rx="4" fill="#ebebeb"/>
        <g id="Rectangle_43" data-name="Rectangle 43" transform="translate(0 34.019)" fill="none" stroke="#dbdbdb" stroke-width="1">
          <rect width="277.009" height="24.299" rx="4" stroke="none"/>
          <rect x="0.5" y="0.5" width="276.009" height="23.299" rx="3.5" fill="none"/>
        </g>
        <rect id="Rectangle_44" data-name="Rectangle 44" width="43.738" height="19.439" rx="4" transform="translate(233.271 68.037)" fill="#007bff"/>
      </g>
      <g id="section2" transform="translate(2531.645 856.776)" opacity="0">
        <rect id="Rectangle_42-2" data-name="Rectangle 42" width="68.037" height="19.439" rx="4" transform="translate(0)" fill="#ebebeb"/>
        <g id="Rectangle_43-2" data-name="Rectangle 43" transform="translate(0 34.019)" fill="none" stroke="#dbdbdb" stroke-width="1">
          <rect width="277.009" height="24.299" rx="4" stroke="none"/>
          <rect x="0.5" y="0.5" width="276.009" height="23.299" rx="3.5" fill="none"/>
        </g>
        <rect id="Rectangle_45" data-name="Rectangle 45" width="89.906" height="19.439" rx="4" transform="translate(0 75.327)" fill="#ebebeb"/>
        <g id="Rectangle_46" data-name="Rectangle 46" transform="translate(0 109.346)" fill="none" stroke="#dbdbdb" stroke-width="1">
          <rect width="277.009" height="24.299" rx="4" stroke="none"/>
          <rect x="0.5" y="0.5" width="276.009" height="23.299" rx="3.5" fill="none"/>
        </g>
        <rect id="Rectangle_44-2" data-name="Rectangle 44" width="38.878" height="19.439" rx="4" transform="translate(238.13 150.654)" fill="#007bff"/>
        <rect id="Rectangle_47" data-name="Rectangle 47" width="46.168" height="19.439" rx="4" transform="translate(0 150.654)" fill="#bebbbb"/>
      </g>
      <g id="section3" transform="translate(2531.645 856.776)" opacity="0">
        <rect id="Rectangle_42-3" data-name="Rectangle 42" width="92.336" height="19.439" rx="4" transform="translate(0)" fill="#ebebeb"/>
        <g id="Rectangle_43-3" data-name="Rectangle 43" transform="translate(0 34.019)" fill="none" stroke="#dbdbdb" stroke-width="1">
          <rect width="277.009" height="24.299" rx="4" stroke="none"/>
          <rect x="0.5" y="0.5" width="276.009" height="23.299" rx="3.5" fill="none"/>
        </g>
        <rect id="Rectangle_45-2" data-name="Rectangle 45" width="136.075" height="19.439" rx="4" transform="translate(0 75.327)" fill="#ebebeb"/>
        <g id="Rectangle_46-2" data-name="Rectangle 46" transform="translate(0 109.346)" fill="none" stroke="#dbdbdb" stroke-width="1">
          <rect width="277.009" height="24.299" rx="4" stroke="none"/>
          <rect x="0.5" y="0.5" width="276.009" height="23.299" rx="3.5" fill="none"/>
        </g>
        <rect id="Rectangle_44-3" data-name="Rectangle 44" width="38.878" height="19.439" rx="4" transform="translate(238.13 301.308)" fill="#007bff"/>
        <rect id="Rectangle_48" data-name="Rectangle 48" width="46.168" height="19.439" rx="4" transform="translate(0 301.308)" fill="#bebbbb"/>
        <rect id="Rectangle_49" data-name="Rectangle 49" width="72.897" height="19.439" rx="4" transform="translate(0 150.654)" fill="#ebebeb"/>
        <g id="Rectangle_50" data-name="Rectangle 50" transform="translate(0 184.673)" fill="none" stroke="#dbdbdb" stroke-width="1">
          <rect width="277.009" height="24.299" rx="4" stroke="none"/>
          <rect x="0.5" y="0.5" width="276.009" height="23.299" rx="3.5" fill="none"/>
        </g>
        <rect id="Rectangle_51" data-name="Rectangle 51" width="72.897" height="19.439" rx="4" transform="translate(0 225.981)" fill="#ebebeb"/>
        <g id="Rectangle_52" data-name="Rectangle 52" transform="translate(0 260)" fill="none" stroke="#dbdbdb" stroke-width="1">
          <rect width="277.009" height="24.299" rx="4" stroke="none"/>
          <rect x="0.5" y="0.5" width="276.009" height="23.299" rx="3.5" fill="none"/>
        </g>
        <g id="Rectangle_131" data-name="Rectangle 131" transform="translate(0 320.971)" fill="none" stroke="#dbdbdb" stroke-width="1" opacity="0.001">
          <rect width="277.009" height="24.299" rx="4" stroke="none"/>
          <rect x="0.5" y="0.5" width="276.009" height="23.299" rx="3.5" fill="none"/>
        </g>
      </g>
    </g>
  </g>
</svg>
