<svg xmlns="http://www.w3.org/2000/svg" width="284.549" height="314.832" viewBox="0 0 284.549 314.832">
  <g id="Setup" transform="translate(-2398 -745)">
    <g id="Rectangle_41" data-name="Rectangle 41" transform="translate(2398 745)" fill="#fff" stroke="#acacac" stroke-width="1">
      <rect width="284.549" height="200.858" stroke="none"/>
      <rect x="0.5" y="0.5" width="283.549" height="199.858" fill="none"/>
    </g>
    <text id="Setup_your_account" data-name="Setup your account" transform="translate(2469.974 787.107)" fill="#333" font-size="15" font-family="Catamaran-Bold, Catamaran" font-weight="700"><tspan x="0" y="0">Setup your account</tspan></text>
    <g id="section1" transform="translate(2446.541 821.996)">
      <rect id="Rectangle_42" data-name="Rectangle 42" width="78.669" height="13.391" rx="4" fill="#ebebeb"/>
      <g id="Rectangle_43" data-name="Rectangle 43" transform="translate(0 23.433)" fill="none" stroke="#dbdbdb" stroke-width="1">
        <rect width="190.815" height="16.738" rx="4" stroke="none"/>
        <rect x="0.5" y="0.5" width="189.815" height="15.738" rx="3.5" fill="none"/>
      </g>
      <rect id="Rectangle_44" data-name="Rectangle 44" width="30.129" height="13.391" rx="4" transform="translate(160.687 46.867)" fill="#007bff"/>
    </g>
    <g id="section2" transform="translate(2490.06 821.996)" opacity="0">
      <rect id="Rectangle_42-2" data-name="Rectangle 42" width="46.867" height="13.391" rx="4" transform="translate(0)" fill="#ebebeb"/>
      <g id="Rectangle_43-2" data-name="Rectangle 43" transform="translate(0 23.433)" fill="none" stroke="#dbdbdb" stroke-width="1">
        <rect width="190.815" height="16.738" rx="4" stroke="none"/>
        <rect x="0.5" y="0.5" width="189.815" height="15.738" rx="3.5" fill="none"/>
      </g>
      <rect id="Rectangle_45" data-name="Rectangle 45" width="61.931" height="13.391" rx="4" transform="translate(0 51.888)" fill="#ebebeb"/>
      <g id="Rectangle_46" data-name="Rectangle 46" transform="translate(0 75.322)" fill="none" stroke="#dbdbdb" stroke-width="1">
        <rect width="190.815" height="16.738" rx="4" stroke="none"/>
        <rect x="0.5" y="0.5" width="189.815" height="15.738" rx="3.5" fill="none"/>
      </g>
      <rect id="Rectangle_44-2" data-name="Rectangle 44" width="26.781" height="13.391" rx="4" transform="translate(164.034 103.777)" fill="#007bff"/>
      <rect id="Rectangle_47" data-name="Rectangle 47" width="31.803" height="13.391" rx="4" transform="translate(0 103.777)" fill="#bebbbb"/>
    </g>
    <g id="section3" transform="translate(2490.06 821.996)" opacity="0">
      <rect id="Rectangle_42-3" data-name="Rectangle 42" width="63.605" height="13.391" rx="4" transform="translate(0)" fill="#ebebeb"/>
      <g id="Rectangle_43-3" data-name="Rectangle 43" transform="translate(0 23.433)" fill="none" stroke="#dbdbdb" stroke-width="1">
        <rect width="190.815" height="16.738" rx="4" stroke="none"/>
        <rect x="0.5" y="0.5" width="189.815" height="15.738" rx="3.5" fill="none"/>
      </g>
      <rect id="Rectangle_45-2" data-name="Rectangle 45" width="93.734" height="13.391" rx="4" transform="translate(0 51.888)" fill="#ebebeb"/>
      <g id="Rectangle_46-2" data-name="Rectangle 46" transform="translate(0 75.322)" fill="none" stroke="#dbdbdb" stroke-width="1">
        <rect width="190.815" height="16.738" rx="4" stroke="none"/>
        <rect x="0.5" y="0.5" width="189.815" height="15.738" rx="3.5" fill="none"/>
      </g>
      <rect id="Rectangle_44-3" data-name="Rectangle 44" width="26.781" height="13.391" rx="4" transform="translate(164.034 207.554)" fill="#007bff"/>
      <rect id="Rectangle_48" data-name="Rectangle 48" width="31.803" height="13.391" rx="4" transform="translate(0 207.554)" fill="#bebbbb"/>
      <rect id="Rectangle_49" data-name="Rectangle 49" width="50.215" height="13.391" rx="4" transform="translate(0 103.777)" fill="#ebebeb"/>
      <g id="Rectangle_50" data-name="Rectangle 50" transform="translate(0 127.21)" fill="none" stroke="#dbdbdb" stroke-width="1">
        <rect width="190.815" height="16.738" rx="4" stroke="none"/>
        <rect x="0.5" y="0.5" width="189.815" height="15.738" rx="3.5" fill="none"/>
      </g>
      <rect id="Rectangle_51" data-name="Rectangle 51" width="50.215" height="13.391" rx="4" transform="translate(0 155.665)" fill="#ebebeb"/>
      <g id="Rectangle_52" data-name="Rectangle 52" transform="translate(0 179.099)" fill="none" stroke="#dbdbdb" stroke-width="1">
        <rect width="190.815" height="16.738" rx="4" stroke="none"/>
        <rect x="0.5" y="0.5" width="189.815" height="15.738" rx="3.5" fill="none"/>
      </g>
      <g id="Rectangle_131" data-name="Rectangle 131" transform="translate(0 221.099)" fill="none" stroke="#dbdbdb" stroke-width="1" opacity="0.001">
        <rect width="190.815" height="16.738" rx="4" stroke="none"/>
        <rect x="0.5" y="0.5" width="189.815" height="15.738" rx="3.5" fill="none"/>
      </g>
    </g>
  </g>
</svg>
