<svg xmlns="http://www.w3.org/2000/svg" xmlns:xlink="http://www.w3.org/1999/xlink" version="1.1" x="0px" y="0px" viewBox="0 0 128 160" enable-background="new 0 0 128 128" xml:space="preserve"><g><polygon points="62.929,72.084 61.015,78.07 64.879,78.07  "/><circle cx="53" cy="95.991" r="2"/><circle cx="75" cy="106.994" r="2"/><path d="M88.451,60.018C82.758,52.158,76.967,44.439,71.994,36H56.006c-4.971,8.439-10.762,16.158-16.455,24.018   c-8.449,11.662-15.435,24.084-14.46,39.475C26.258,117.92,43,126.939,58.253,127.807C59.89,127.9,64.21,128,64.498,128   c1.752,0,3.524-0.095,5.25-0.193c15.256-0.867,31.996-9.887,33.16-28.314C103.885,84.102,96.9,71.68,88.451,60.018z M47,95.99   c0-3.313,2.686-6,6-6c3.314,0,6,2.687,6,6c0,3.317-2.686,6.003-6,6.003C49.686,101.993,47,99.308,47,95.99z M59.715,113.025   c-0.375,0.625-1.037,0.971-1.717,0.971c-0.35,0-0.705-0.092-1.027-0.285c-0.947-0.568-1.254-1.797-0.686-2.744l12-20.005   c0.568-0.947,1.798-1.255,2.744-0.687c0.947,0.569,1.254,1.798,0.686,2.745L59.715,113.025z M75,112.996c-3.314,0-6-2.687-6-6.003   c0-3.313,2.686-6,6-6s6,2.687,6,6C81,110.31,78.314,112.996,75,112.996z"/></g><path d="M54,27.975c-1.104,0-2,0.896-2,2.001s0.896,2.001,2,2.001h20c1.105,0,2-0.896,2-2.001s-0.895-2.001-2-2.001H54z"/><path d="M80.003,2.46c0.052-1.574-1.208-2.441-2.712-2.46c-3.982-0.05-5.444,5.345-9.443,5.345c-2.449,0-2.555-2.402-4.363-3.382  c-1.9-1.029-3.243,1.535-4.362,2.604c-1.188,1.134-2.85,1.673-4.403,1.016c-1.524-0.645-2.707-1.958-4.33-2.431  c-1.207-0.352-2.382,0.611-2.386,1.806c-0.005,1.405,1.105,2.559,1.856,3.641c0,0,4.354,4.137,6.141,15.375h16.121  c0.813-6.011,2.352-12.099,5.849-17.143C78.891,5.503,79.947,4.158,80.003,2.46z"/></svg>