
<svg xmlns:dc="http://purl.org/dc/elements/1.1/" xmlns:cc="http://creativecommons.org/ns#" xmlns:rdf="http://www.w3.org/1999/02/22-rdf-syntax-ns#" xmlns:svg="http://www.w3.org/2000/svg" xmlns="http://www.w3.org/2000/svg" xmlns:sodipodi="http://sodipodi.sourceforge.net/DTD/sodipodi-0.dtd" xmlns:inkscape="http://www.inkscape.org/namespaces/inkscape" viewBox="0 0 32 40.00000125" version="1.1" x="0px" y="0px"><g transform="translate(0,-1020.3622)"><g style="" fill="#000000" fill-opacity="1" stroke="none"><g style="" fill="#000000" fill-opacity="1" stroke="none"><g><g style="" fill="#000000" fill-opacity="1" stroke="none"><g><path style="text-indent:0;text-transform:none;direction:ltr;block-progression:tb;baseline-shift:baseline;color:#000000;enable-background:accumulate;" d="M 15.980469,3 C 19.582524,3 22.5,5.9094 22.5,9.5 22.5,13.0924 19.582541,16 15.980469,16 12.377241,16 9.5,13.096 9.5,9.5 9.5,5.9057 12.377258,3 15.980469,3 z m -2.453125,2.5 0,0.00977 -0.02344,0 0,1 1.027344,0 c 0.933245,0 1.404326,0.4416793 1.574219,0.9902344 l -2.578125,0 0,1 2.578125,0 C 15.936126,9.0489453 15.465633,9.4921875 14.53125,9.4921875 l -0.320312,0 -0.0039,-0.00391 -0.0039,0.00391 -0.699219,0 0,1.0000005 0.294922,0 L 16.849609,13.5 17.552734,12.789062 15.158203,10.425781 C 16.242902,10.198338 16.939335,9.3910277 17.130859,8.5 l 1.365235,0 0,-1 -1.365235,0 C 17.05328,7.1402662 16.885092,6.8000814 16.650391,6.5 l 1.845703,0 0,-1 z M 8.4804688,16 C 12.082524,16 15,18.9094 15,22.5 15,26.0924 12.082541,29 8.4804688,29 4.8772412,29 2,26.096 2,22.5 2,18.9057 4.8772585,16 8.4804688,16 z M 23.478516,16 C 27.080571,16 30,18.9094 30,22.5 30,26.0924 27.080588,29 23.478516,29 19.875288,29 17,26.096 17,22.5 17,18.9057 19.875305,16 23.478516,16 z m -14.9863285,1.998047 0,0.002 c -0.1499879,0.0024 -0.2972742,0.07636 -0.3886719,0.195312 -0.020301,0.02616 -0.037995,0.05434 -0.052734,0.08398 C 8.0161741,18.350047 7.9986148,18.429064 8,18.507812 l 0,0.439454 c -0.98018,0.2061 -1.7480469,0.998193 -1.7480469,1.996093 0,0.436013 0.1459509,0.833044 0.3925781,1.160157 3.364e-4,4.46e-4 -3.366e-4,0.0015 0,0.002 0.2465734,0.326567 0.5935965,0.581866 0.9941407,0.734375 5.52e-4,2.1e-4 0.0014,-2.11e-4 0.00195,0 0.2668649,0.101371 0.5582387,0.158203 0.859375,0.158203 0.547545,0 0.9763446,0.279085 1.15625,0.654297 0.059969,0.125062 0.091797,0.26069 0.091797,0.40039 0,0.419325 -0.2904577,0.801736 -0.7441407,0.966797 -0.1512273,0.05501 -0.3213837,0.08594 -0.5039062,0.08594 -0.1818326,0 -0.3511605,-0.03131 -0.5019531,-0.08594 -5.568e-4,-2.02e-4 -0.0014,2.03e-4 -0.00195,0 -0.4536807,-0.165042 -0.7441407,-0.547472 -0.7441407,-0.966797 0.00125,-0.08452 -0.014112,-0.159262 -0.041016,-0.222656 -0.027146,-0.06397 -0.065696,-0.115751 -0.1132813,-0.158203 -0.2820867,-0.253575 -0.8528806,-0.126291 -0.8457031,0.380859 0,0.12815 0.011843,0.251883 0.035156,0.371094 0.046627,0.238423 0.1379262,0.457959 0.2636718,0.654297 C 6.8651455,25.568971 7.3973062,25.915281 8,26.050781 l 0,0.44336 c -2.1e-4,0.01695 4.421e-4,0.0339 0.00195,0.05078 0.00261,0.03303 0.0085,0.06579 0.017578,0.09766 0.1029034,0.352637 0.6535265,0.45565 0.8769532,0.164063 0.020411,-0.02677 0.038109,-0.05561 0.052734,-0.08594 C 8.9835293,26.650535 9.0010781,26.572241 9,26.494141 l 0,-0.445313 c 0.1225225,-0.02576 0.2426192,-0.06018 0.3574219,-0.103516 0.2296054,-0.08666 0.4412476,-0.207435 0.6269531,-0.355468 0.464263,-0.370082 0.763672,-0.913422 0.763672,-1.53711 0,-0.145337 -0.01606,-0.286213 -0.04687,-0.421875 -0.03068,-0.135058 -0.07692,-0.2656 -0.134766,-0.388671 -2.38e-4,-5.07e-4 2.39e-4,-0.0014 0,-0.002 C 10.217071,22.498849 9.40537,21.998047 8.5,21.998047 c -0.1818276,0 -0.3511615,-0.03111 -0.5019531,-0.08594 -5.545e-4,-2.02e-4 -0.0014,2.03e-4 -0.00195,0 -0.4536779,-0.165662 -0.7441407,-0.54965 -0.7441407,-0.96875 0,-0.1379 0.031225,-0.271364 0.089844,-0.394531 0.1758548,-0.369481 0.5949619,-0.644472 1.1308593,-0.654297 0.01886,0.0011 0.037781,0.0011 0.056641,0 0.71324,0.014 1.21875,0.495875 1.21875,1.046875 -0.00625,0.422625 0.3900601,0.580266 0.6855471,0.47461 0.177292,-0.06339 0.318042,-0.221035 0.314453,-0.47461 0,-0.12815 -0.01184,-0.251881 -0.03516,-0.371094 C 10.549695,19.735832 9.8437712,19.133059 9,18.943359 l 0,-0.4375 c 0.00411,-0.2333 -0.1770488,-0.456267 -0.40625,-0.5 -6.51e-4,-1e-6 -0.0013,-1e-6 -0.00195,0 -0.032832,-0.0059 -0.066257,-0.0085 -0.099609,-0.0078 z M 24.416016,18 c -1.349473,-0.02841 -2.685728,0.551622 -3.585938,1.654297 -0.335441,0.410899 -0.585264,0.865597 -0.753906,1.34375 l -1.365234,0 -0.337891,1 1.486328,0 c -0.03714,0.333148 -0.03512,0.666986 0.002,1 l -1.074219,0 -0.335937,1 1.626953,0 c 0.178496,0.506724 0.445843,0.989226 0.810547,1.417969 1.405452,1.6523 3.799192,2.065068 5.677734,0.980468 L 27,26.146484 26.5,25.28125 l -0.433594,0.25 c -1.466081,0.8464 -3.31915,0.525828 -4.416015,-0.763672 -0.20182,-0.23725 -0.355633,-0.499528 -0.484375,-0.769531 l 1.859375,0 0.33789,-1 -2.503906,0 c -0.04772,-0.331431 -0.05194,-0.668378 -0.0039,-1 l 2.09375,0 0.335937,-1 -2.117187,0 c 0.11876,-0.248501 0.256574,-0.489308 0.4375,-0.710938 1.07056,-1.3114 2.917487,-1.670115 4.40039,-0.853515 l 0.4375,0.242187 0.482422,-0.876953 -0.4375,-0.240234 C 26.013257,18.296994 25.50635,18.128381 24.994141,18.050781 24.802062,18.021694 24.608797,18.004059 24.416016,18 z" transform="translate(0,1020.3622)" fill="#000000" fill-opacity="1" fill-rule="evenodd" stroke="none" visibility="visible" display="inline" overflow="visible"/></g></g></g></g></g></g><text x="0" y="47.000001" fill="#000000" font-size="5px" font-weight="bold" font-family="'Helvetica Neue', Helvetica, Arial-Unicode, Arial, Sans-serif">Created by Chameleon Design</text><text x="0" y="52.000001" fill="#000000" font-size="5px" font-weight="bold" font-family="'Helvetica Neue', Helvetica, Arial-Unicode, Arial, Sans-serif">from the Noun Project</text></svg>